<svg xmlns="http://www.w3.org/2000/svg" width="48" height="54" viewBox="0 0 48 54">
    <g fill="#FA575D" fill-rule="nonzero" transform="translate(-1)">
        <ellipse cx="9.562" cy="38.243" rx="4.518" ry="4.44"/>
        <path d="M9.637 45.313l-1.719-1.961-3.988.713v7.927h1.422l.07 1.325h8.158l.068-1.325h1.064v-7.927l-3.407-.713z"/>
        <ellipse cx="24.747" cy="38.035" rx="4.515" ry="4.438"/>
        <path d="M24.82 45.102l-1.717-1.962-3.988.717v7.923h1.422l.07 1.327h8.158l.068-1.327h1.062v-7.923l-3.405-.717z"/>
        <ellipse cx="39.518" cy="38.032" rx="4.518" ry="4.44"/>
        <path d="M39.593 45.102l-1.716-1.962-3.99.717v7.923h1.421l.072 1.327h8.157l.068-1.327h1.062v-7.923l-3.405-.717z"/>
        <ellipse cx="17.72" cy="20.753" rx="3.623" ry="3.56"/>
        <path d="M14.402 32.838h6.54l.056-1.065h.85v-6.351l-2.731-.575-1.337 1.573-1.377-1.573-3.196.575v6.351h1.138z"/>
        <ellipse cx="32.905" cy="20.585" rx="3.622" ry="3.558"/>
        <path d="M32.965 26.252l-1.377-1.572-3.196.572v6.358h1.138l.057 1.06h6.541l.054-1.06h.851v-6.358l-2.73-.572z"/>
        <ellipse cx="44.748" cy="20.585" rx="3.623" ry="3.558"/>
        <path d="M46.147 24.68l-1.337 1.572-1.377-1.572-3.196.572v6.358h1.138l.055 1.06h6.542l.053-1.06h.853v-6.358z"/>
        <ellipse cx="5.62" cy="20.583" rx="3.622" ry="3.558"/>
        <path d="M8.897 31.608h.851v-6.356l-2.731-.575L5.68 26.25l-1.377-1.573-3.198.575v6.356h1.14l.057 1.062h6.541z"/>
        <circle cx="24.945" cy="3.852" r="3.852"/>
        <path d="M21.523 17.027h6.945l.347-6.749 6.877-2.276-.592-1.8-6.283 2.078h-2.47L24.88 9.982 23.458 8.28l-3.103.47-.215 7.032h1.322z"/>
    </g>
</svg>
