<?xml version="1.0" encoding="UTF-8"?>
<svg width="403px" height="502px" viewBox="0 0 403 502" version="1.1" xmlns="http://www.w3.org/2000/svg" xmlns:xlink="http://www.w3.org/1999/xlink">
    <!-- Generator: Sketch 40.3 (33839) - http://www.bohemiancoding.com/sketch -->
    <title>idea</title>
    <desc>Created with Sketch.</desc>
    <defs></defs>
    <g id="Page-1" stroke="none" stroke-width="1" fill="none" fill-rule="evenodd">
        <g id="idea" transform="translate(-1.000000, -1.000000)">
            <g id="Layer_1">
                <path d="M149.401,503.034 C149.401,503.034 174.479,457.058 162.985,427.801 C162.985,427.801 153.581,388.095 112.83,396.454 C112.83,396.454 35.508,415.262 38.642,375.556 C38.642,375.556 47.001,352.568 33.418,338.985 C33.418,338.985 25.059,331.671 33.418,320.177 C33.418,320.177 15.655,303.459 30.283,295.099 L30.283,281.515 C30.283,281.515 -10.468,274.201 4.161,253.303 C4.161,253.303 51.181,198.968 42.822,177.025 C39.687,168.666 36.553,160.307 37.598,151.947 C40.733,115.376 60.586,35.963 166.12,7.751 C167.165,7.751 169.255,6.706 170.3,6.706 C335.394,-34.045 466.006,151.947 370.92,293.008 C363.606,304.502 355.247,315.996 346.887,326.445 C346.887,326.445 312.405,358.837 354.201,428.845 C354.201,428.845 384.503,476.91 381.368,501.988 L149.401,501.988 L149.401,503.034 L149.401,503.034 Z" id="Shape" fill="#F2F2F2"></path>
                <path d="M291.507,100.749 C289.417,94.48 287.327,88.21 284.193,82.986 L290.462,68.357 L269.564,47.459 L254.935,53.728 C248.666,50.593 243.441,48.504 237.172,46.414 L231.948,31.785 L201.646,31.785 L196.422,46.414 C190.153,48.504 183.883,50.594 178.659,53.728 L164.03,47.459 L143.132,68.357 L149.401,82.986 C146.266,88.21 144.177,94.48 142.087,100.749 L127.458,105.973 L127.458,136.275 L142.087,141.499 C144.177,147.768 146.267,154.038 149.401,159.262 L143.132,173.891 L164.03,194.789 L178.659,188.52 C183.884,191.655 190.153,193.744 196.422,195.834 L201.646,210.463 L231.948,210.463 L237.172,195.834 C243.441,193.744 249.711,191.654 254.935,188.52 L269.564,194.789 L290.462,173.891 L284.193,159.262 C287.328,154.038 289.417,147.768 291.507,141.499 L306.136,136.275 L306.136,105.973 L291.507,100.749 L291.507,100.749 Z M216.274,158.218 C196.421,158.218 179.703,141.5 179.703,121.647 C179.703,101.794 196.421,85.076 216.274,85.076 C236.127,85.076 252.845,101.794 252.845,121.647 C252.845,141.5 236.127,158.218 216.274,158.218 L216.274,158.218 Z" id="Shape" fill="#40596B"></path>
                <path d="M254.935,82.986 C232.992,61.043 198.511,61.043 176.568,82.986 C154.625,104.929 154.625,139.41 176.568,161.353 C198.511,183.296 232.992,183.296 254.935,161.353 C276.878,139.41 276.878,103.883 254.935,82.986 L254.935,82.986 Z M241.352,147.769 C226.723,162.398 203.736,162.398 189.107,147.769 C174.478,133.14 174.478,110.153 189.107,95.524 C203.736,80.895 226.723,80.895 241.352,95.524 C255.98,110.153 255.98,133.141 241.352,147.769 L241.352,147.769 Z" id="Shape" fill="#334A5E"></path>
                <path d="M299.866,241.81 L299.866,233.451 L305.09,228.227 L299.866,215.688 L292.552,215.688 C290.462,213.598 288.372,211.508 286.283,209.419 L286.283,202.105 L273.744,196.881 L268.52,202.105 L260.161,202.105 L254.937,196.881 L242.398,202.105 L242.398,209.419 C240.308,211.509 238.218,213.599 236.129,215.688 L228.815,215.688 L223.591,228.227 L228.815,233.451 L228.815,241.81 L224.635,247.034 L229.859,259.573 L237.173,259.573 C239.263,261.663 241.353,263.753 243.442,265.842 L243.442,273.156 L255.981,278.38 L261.205,273.156 L269.564,273.156 L274.788,278.38 L287.327,273.156 L287.327,265.842 L293.596,259.573 L300.91,259.573 L306.134,247.034 L299.866,241.81 L299.866,241.81 Z M258.07,253.304 C249.711,250.169 245.531,239.72 248.666,231.361 C251.801,223.002 262.25,218.822 270.609,221.957 C278.968,225.092 283.148,235.541 280.013,243.9 C276.878,252.259 267.474,256.439 258.07,253.304 L258.07,253.304 Z" id="Shape" fill="#FF6348"></path>
                <path d="M366.739,174.937 L366.739,166.578 L371.963,161.353 L366.739,148.814 L359.425,148.814 C357.335,146.724 355.245,144.634 353.156,142.545 L353.156,135.231 L340.617,130.007 L335.393,135.231 L327.034,135.231 L321.81,131.051 L309.271,136.275 L309.271,143.589 C307.181,145.679 305.091,147.769 303.002,149.858 L295.688,149.858 L290.464,162.397 L295.688,167.621 L295.688,175.98 L290.464,181.204 L295.688,193.743 L303.002,193.743 C305.092,195.833 307.182,197.923 309.271,200.012 L309.271,207.326 L321.81,212.55 L327.034,207.326 L335.393,207.326 L340.617,212.55 L353.156,207.326 L353.156,200.012 C355.246,197.922 357.336,195.832 359.425,193.743 L366.739,193.743 L371.963,181.204 L366.739,174.937 L366.739,174.937 Z M324.944,186.43 C316.585,183.295 312.405,172.846 315.54,164.487 C318.675,156.128 329.124,151.948 337.483,155.083 C345.842,158.218 350.022,168.667 346.887,177.026 C343.752,185.386 333.303,189.565 324.944,186.43 L324.944,186.43 Z" id="Shape" fill="#ADB2B7"></path>
            </g>
        </g>
    </g>
</svg>