<svg xmlns="http://www.w3.org/2000/svg" width="50" height="50" viewBox="0 0 50 50">
    <g fill="#FA575D" fill-rule="nonzero">
        <path d="M47.482 2.518c-3.358-3.357-8.822-3.357-12.18 0l-8.957 8.957c-2.642 2.642-3.204 6.586-1.69 9.784l-3.252 3.252c-3.197-1.514-7.142-.952-9.783 1.69l-9.102 9.101c-3.357 3.358-3.357 8.822 0 12.18 3.358 3.357 8.822 3.357 12.18 0l9.101-9.102c2.642-2.641 3.204-6.586 1.69-9.783l3.252-3.253c3.198 1.515 7.142.953 9.783-1.689l8.957-8.957c3.358-3.358 3.358-8.822 0-12.18zM10.207 42.99a2.263 2.263 0 0 1-3.197 0 2.263 2.263 0 0 1 0-3.197l8.685-8.685a2.881 2.881 0 0 0 3.197 3.197l-8.685 8.685zM42.99 10.207l-8.554 8.554a2.881 2.881 0 0 0-3.197-3.197l8.554-8.554a2.263 2.263 0 0 1 3.197 0 2.263 2.263 0 0 1 0 3.197zM46.009 30.911l-5.633-1.47a2.118 2.118 0 0 0-1.07 4.099l5.633 1.47a2.117 2.117 0 1 0 1.07-4.099zM35.174 44.775l-1.47-5.633a2.118 2.118 0 1 0-4.1 1.07l1.471 5.633a2.119 2.119 0 0 0 4.099-1.07zM42.346 39.187l-3.82-3.82a2.118 2.118 0 0 0-2.995 2.995l3.82 3.82c.414.414.956.62 1.498.62a2.118 2.118 0 0 0 1.497-3.615zM10.858 16.297l-5.633-1.47a2.118 2.118 0 1 0-1.07 4.098l5.633 1.47a2.117 2.117 0 1 0 1.07-4.098zM20.559 9.624l-1.47-5.633a2.118 2.118 0 1 0-4.099 1.07l1.47 5.633a2.119 2.119 0 0 0 4.099-1.07zM14.633 11.474l-3.82-3.82a2.118 2.118 0 0 0-2.995 2.995l3.82 3.82c.414.414.956.62 1.498.62a2.118 2.118 0 0 0 1.497-3.615z"/>
    </g>
</svg>
