<?xml version="1.0" encoding="UTF-8"?>
<svg width="504px" height="292px" viewBox="0 0 504 292" version="1.1" xmlns="http://www.w3.org/2000/svg" xmlns:xlink="http://www.w3.org/1999/xlink">
    <!-- Generator: Sketch 40.3 (33839) - http://www.bohemiancoding.com/sketch -->
    <title>mortarboard</title>
    <desc>Created with Sketch.</desc>
    <defs></defs>
    <g id="Page-1" stroke="none" stroke-width="1" fill="none" fill-rule="evenodd">
        <g id="mortarboard" fill="#2B414D">
            <g id="Layer_1">
                <path d="M51.003,228.585 L39.188,228.585 C38.794,273.877 31.311,291.6 31.311,291.6 L74.634,299.477 C74.634,299.477 51.003,269.938 51.003,228.585 L51.003,228.585 Z M51.003,130.123 L39.188,130.123 L39.188,220.708 L51.003,220.708 L51.003,130.123 L51.003,130.123 Z M51.003,228.585 L39.188,228.585 C38.794,273.877 31.311,291.6 31.311,291.6 L74.634,299.477 C74.634,299.477 51.003,269.938 51.003,228.585 L51.003,228.585 Z M51.003,130.123 L39.188,130.123 L39.188,220.708 L51.003,220.708 L51.003,130.123 L51.003,130.123 Z" id="Shape"></path>
                <path d="M45.095,208.892 C56.91,208.892 66.757,218.738 66.757,230.554 C66.757,242.369 56.911,252.216 45.095,252.216 C33.279,252.216 23.433,242.764 23.433,230.554 C23.434,218.738 33.28,208.892 45.095,208.892 L45.095,208.892 Z" id="Shape"></path>
                <path d="M5.317,113.582 L238.868,2.911 C245.957,-0.634 257.773,-0.634 264.862,2.911 L498.413,113.582 C505.502,117.127 505.502,123.428 498.413,126.973 L264.862,237.643 C257.773,241.188 245.957,241.188 238.868,237.643 L5.317,126.972 C-1.772,123.428 -1.772,117.126 5.317,113.582 L5.317,113.582 Z M251.865,172.658 C325.908,172.658 385.773,199.44 385.773,232.129 C385.773,264.818 325.908,291.6 251.865,291.6 C177.822,291.6 117.957,264.818 117.957,232.129 C117.957,199.44 177.822,172.658 251.865,172.658 L251.865,172.658 Z" id="Shape"></path>
                <path d="M373.957,141.545 C373.957,113.582 319.606,90.739 252.259,90.739 C185.305,90.739 130.954,113.188 130.561,141.151 C130.561,141.151 117.564,232.523 117.958,232.523 C117.958,205.741 174.278,173.052 252.26,173.052 C324.728,173.052 378.685,206.923 385.774,232.129 C385.772,232.129 373.957,141.545 373.957,141.545 L373.957,141.545 Z" id="Shape"></path>
                <path d="M259.742,90.738 L259.742,173.446 C328.271,175.809 378.684,208.104 385.773,232.523 L373.958,141.545 C373.957,114.369 323.545,92.708 259.742,90.738 L259.742,90.738 Z" id="Shape"></path>
            </g>
        </g>
    </g>
</svg>