<?xml version="1.0" encoding="UTF-8"?>
<svg width="58px" height="58px" viewBox="0 0 58 58" version="1.1" xmlns="http://www.w3.org/2000/svg" xmlns:xlink="http://www.w3.org/1999/xlink">
    <!-- Generator: Sketch 40.3 (33839) - http://www.bohemiancoding.com/sketch -->
    <title>ping-pong</title>
    <desc>Created with Sketch.</desc>
    <defs></defs>
    <g id="Page-1" stroke="none" stroke-width="1" fill="none" fill-rule="evenodd">
        <g id="ping-pong">
            <g id="Capa_1">
                <path d="M10.39,23.151 C10.223,26.094 10.8,29.054 12.157,31.97 C12.987,33.752 13.298,35.755 12.824,37.663 C12.038,40.828 10.137,43.363 6.663,45.42 C5.292,46.232 3.943,47.084 2.68,48.055 L1.089,49.279 C0.163,49.991 0.075,51.354 0.901,52.18 L6.13,57.409 C6.965,58.244 8.345,58.143 9.05,57.196 L10.696,54.983 C11.558,53.825 12.329,52.598 13.049,51.347 C15.043,47.884 17.463,45.979 20.527,45.143 C22.406,44.63 24.393,44.91 26.181,45.683 C28.922,46.869 31.703,47.382 34.471,47.232 C34.666,47.221 34.757,46.977 34.619,46.839 L10.784,23.004 C10.646,22.866 10.401,22.956 10.39,23.151 L10.39,23.151 Z" id="Shape" fill="#A49075"></path>
                <circle id="Oval" fill="#ECF0F1" cx="18.003" cy="9.893" r="9"></circle>
                <path d="M52.004,5.634 C45.078,-1.292 33.672,-1.634 24.356,3.518 C24.36,3.522 24.364,3.525 24.367,3.528 C27.882,7.043 27.882,12.741 24.367,16.256 C20.975,19.648 15.554,19.756 12.02,16.601 C11.072,18.734 10.551,20.903 10.417,23.08 C10.478,22.941 10.666,22.885 10.784,23.004 L34.618,46.838 C34.744,46.965 34.674,47.172 34.512,47.216 C39.568,46.931 44.576,44.448 49.213,39.811 C59.036,29.988 60.671,14.301 52.004,5.634 L52.004,5.634 Z" id="Shape" fill="#E64C3C"></path>
            </g>
        </g>
    </g>
</svg>