<svg xmlns="http://www.w3.org/2000/svg" xmlns:xlink="http://www.w3.org/1999/xlink" width="50" height="50" viewBox="0 0 50 50">
    <defs>
        <rect id="a" width="50" height="50" rx="10"/>
    </defs>
    <g fill="none" fill-rule="evenodd">
        <g>
            <use fill="#FFF" xlink:href="#a"/>
            <rect width="49" height="49" x=".5" y=".5" stroke="#FA575D" rx="10"/>
        </g>
        <path fill="#FA575D" fill-rule="nonzero" d="M33.595 19.762a7.05 7.05 0 0 1-1.232.419 3.87 3.87 0 0 0 1.014-1.626.202.202 0 0 0-.295-.236 7.09 7.09 0 0 1-1.884.783.498.498 0 0 1-.448-.112 3.841 3.841 0 0 0-2.55-.968c-.408 0-.818.063-1.222.19a3.748 3.748 0 0 0-2.517 2.706c-.113.48-.144.96-.091 1.428a.143.143 0 0 1-.155.157c-2.736-.256-5.203-1.582-6.947-3.734a.2.2 0 0 0-.33.026 3.893 3.893 0 0 0-.522 1.95c0 1.051.42 2.042 1.149 2.764a3.442 3.442 0 0 1-.88-.342.202.202 0 0 0-.299.175 3.885 3.885 0 0 0 2.252 3.577 3.43 3.43 0 0 1-.732-.061.202.202 0 0 0-.23.26 3.87 3.87 0 0 0 3.052 2.645 7.082 7.082 0 0 1-3.984 1.217h-.446a.296.296 0 0 0-.289.224.308.308 0 0 0 .147.339 10.53 10.53 0 0 0 5.316 1.442c1.634 0 3.163-.326 4.543-.97a10.038 10.038 0 0 0 3.324-2.506c.876-1 1.56-2.153 2.036-3.43.452-1.216.692-2.514.692-3.753v-.06c0-.198.089-.386.245-.513a7.649 7.649 0 0 0 1.533-1.693c.112-.169-.065-.38-.25-.298z"/>
    </g>
</svg>
