<svg xmlns="http://www.w3.org/2000/svg" width="50" height="50" viewBox="0 0 50 50">
    <g fill="#FA575D" fill-rule="nonzero">
        <path d="M44.93 10.887l-.735.233-3.91.349-1.105 1.764-.802-.255-3.112-2.806-.452-1.46-.605-1.556-1.956-1.754-2.308-.452-.053 1.056 2.261 2.207 1.106 1.303-1.243.65-1.013-.299-1.517-.633.052-1.223-1.991-.819-.661 2.877-2.006.454.198 1.605 2.614.503.452-2.564 2.158.319 1.003.587h1.61l1.1 2.207 2.92 2.962-.213 1.152-2.355-.3-4.069 2.054-2.93 3.515-.38 1.556h-1.052l-1.96-.903-1.903.903.474 2.008.828-.955 1.456-.045-.101 1.803 1.206.353 1.205 1.353 1.967-.553 2.247.355 2.61.701 1.302.153 2.21 2.508 4.264 2.508-2.758 5.269-2.911 1.353-1.105 3.01-4.212 2.813-.449 1.622c10.769-2.594 18.78-12.267 18.78-23.833a24.436 24.436 0 0 0-4.156-13.655z"/>
        <path d="M27.367 37.37l-1.787-3.314 1.64-3.418-1.64-.491-1.842-1.85-4.082-.916-1.354-2.834v1.683h-.597l-3.517-4.77v-3.916l-2.579-4.192-4.093.73H4.758l-1.388-.91 1.77-1.403-1.765.408A24.391 24.391 0 0 0 .006 24.545c0 13.552 10.986 24.542 24.54 24.542 1.043 0 2.067-.092 3.079-.214l-.256-2.973s1.126-4.416 1.126-4.566c-.001-.151-1.128-3.964-1.128-3.964zM9.125 7.914l4.36-.608 2.009-1.101 2.26.651 3.613-.2 1.238-1.945 1.804.297 4.383-.411L30 3.266l1.703-1.138 2.41.363.878-.133C31.817.864 28.286 0 24.544 0 16.927 0 10.116 3.472 5.619 8.923h.012l3.494-1.009zm16.456-5.473l2.506-1.38 1.61.93-2.33 1.773-2.225.224-1.001-.65 1.44-.897zm-7.423.201l1.106.461 1.448-.46.79 1.366-3.344.878-1.608-.94c-.002 0 1.572-1.013 1.608-1.305z"/>
    </g>
</svg>
